# xmcd
#
# Track frame offsets: 
#        150
#        32523
#        61546
#        82410
#        110464
#        156764
#        181595
#        205124
#        217519
#        240583
#        255561
#        276053
#
# Disc length: 4060 seconds
#
# Revision: 0
# Processed by: cddbd v1.5.1PL2 Copyright (c) Steve Scherf et al.
# Submitted via: ExactAudioCopy v0.95b3
#
DISCID=900fda0c
DTITLE=Don Garrett - Just Love
DYEAR=2006
DGENRE=Blues
TTITLE0=Daily Groan
TTITLE1=Let's Get Down To It
TTITLE2=Further In, Further Out
TTITLE3=Sweet Life, Hard Life Waltz
TTITLE4=Rain Keeps On 'A Pourin" (DG's It Hurts Me Too)
TTITLE5=When The Flow Goes
TTITLE6=Just Waitin' For The Choir To Sing
TTITLE7=Lullaby #2 (Hold Me Tonight)
TTITLE8=Blues Of Heaven
TTITLE9=Rockin' Blues
TTITLE10=DG's Last Lullaby
TTITLE11=DG's 159th Memorial
EXTD=
EXTT0=
EXTT1=
EXTT2=
EXTT3=
EXTT4=
EXTT5=
EXTT6=
EXTT7=
EXTT8=
EXTT9=
EXTT10=
EXTT11=
PLAYORDER=
